mtllib laser_gun_blockout.mtl
o LaserGunBlockout
v -1.300000 -0.310000 -0.290000
v 1.300000 -0.310000 -0.290000
v 1.300000 0.310000 -0.290000
v -1.300000 0.310000 -0.290000
v -1.300000 -0.310000 0.290000
v 1.300000 -0.310000 0.290000
v 1.300000 0.310000 0.290000
v -1.300000 0.310000 0.290000
v -1.350000 -0.240000 -0.210000
v 0.650000 -0.240000 -0.210000
v 0.650000 0.240000 -0.210000
v -1.350000 0.240000 -0.210000
v -1.350000 -0.240000 0.210000
v 0.650000 -0.240000 0.210000
v 0.650000 0.240000 0.210000
v -1.350000 0.240000 0.210000
v -1.775000 -0.360000 -0.340000
v -1.325000 -0.360000 -0.340000
v -1.325000 0.360000 -0.340000
v -1.775000 0.360000 -0.340000
v -1.775000 -0.360000 0.340000
v -1.325000 -0.360000 0.340000
v -1.325000 0.360000 0.340000
v -1.775000 0.360000 0.340000
v -1.950000 0.251141 0.067293
v -1.320000 0.251141 0.067293
v -1.950000 0.183848 0.183848
v -1.320000 0.183848 0.183848
v -1.950000 0.067293 0.251141
v -1.320000 0.067293 0.251141
v -1.950000 -0.067293 0.251141
v -1.320000 -0.067293 0.251141
v -1.950000 -0.183848 0.183848
v -1.320000 -0.183848 0.183848
v -1.950000 -0.251141 0.067293
v -1.320000 -0.251141 0.067293
v -1.950000 -0.251141 -0.067293
v -1.320000 -0.251141 -0.067293
v -1.950000 -0.183848 -0.183848
v -1.320000 -0.183848 -0.183848
v -1.950000 -0.067293 -0.251141
v -1.320000 -0.067293 -0.251141
v -1.950000 0.067293 -0.251141
v -1.320000 0.067293 -0.251141
v -1.950000 0.183848 -0.183848
v -1.320000 0.183848 -0.183848
v -1.950000 0.251141 -0.067293
v -1.320000 0.251141 -0.067293
v -1.950000 0.000000 0.000000
v -1.320000 0.000000 0.000000
v -1.350000 0.154548 0.041411
v -0.650000 0.154548 0.041411
v -1.350000 0.113137 0.113137
v -0.650000 0.113137 0.113137
v -1.350000 0.041411 0.154548
v -0.650000 0.041411 0.154548
v -1.350000 -0.041411 0.154548
v -0.650000 -0.041411 0.154548
v -1.350000 -0.113137 0.113137
v -0.650000 -0.113137 0.113137
v -1.350000 -0.154548 0.041411
v -0.650000 -0.154548 0.041411
v -1.350000 -0.154548 -0.041411
v -0.650000 -0.154548 -0.041411
v -1.350000 -0.113137 -0.113137
v -0.650000 -0.113137 -0.113137
v -1.350000 -0.041411 -0.154548
v -0.650000 -0.041411 -0.154548
v -1.350000 0.041411 -0.154548
v -0.650000 0.041411 -0.154548
v -1.350000 0.113137 -0.113137
v -0.650000 0.113137 -0.113137
v -1.350000 0.154548 -0.041411
v -0.650000 0.154548 -0.041411
v -1.350000 0.000000 0.000000
v -0.650000 0.000000 0.000000
v 1.125000 -0.190000 -0.210000
v 1.775000 -0.190000 -0.210000
v 1.775000 0.230000 -0.210000
v 1.125000 0.230000 -0.210000
v 1.125000 -0.190000 0.210000
v 1.775000 -0.190000 0.210000
v 1.775000 0.230000 0.210000
v 1.125000 0.230000 0.210000
v 1.690000 -0.010000 -0.090000
v 2.310000 -0.010000 -0.090000
v 2.310000 0.170000 -0.090000
v 1.690000 0.170000 -0.090000
v 1.690000 -0.010000 0.090000
v 2.310000 -0.010000 0.090000
v 2.310000 0.170000 0.090000
v 1.690000 0.170000 0.090000
v 2.200000 -0.220000 -0.290000
v 2.500000 -0.220000 -0.290000
v 2.500000 0.260000 -0.290000
v 2.200000 0.260000 -0.290000
v 2.200000 -0.220000 0.290000
v 2.500000 -0.220000 0.290000
v 2.500000 0.260000 0.290000
v 2.200000 0.260000 0.290000
v -0.625000 0.330000 -0.090000
v 0.925000 0.330000 -0.090000
v 0.925000 0.430000 -0.090000
v -0.625000 0.430000 -0.090000
v -0.625000 0.330000 0.090000
v 0.925000 0.330000 0.090000
v 0.925000 0.430000 0.090000
v -0.625000 0.430000 0.090000
v -0.110000 0.560000 -0.090000
v 0.610000 0.560000 -0.090000
v 0.610000 0.680000 -0.090000
v -0.110000 0.680000 -0.090000
v -0.110000 0.560000 0.090000
v 0.610000 0.560000 0.090000
v 0.610000 0.680000 0.090000
v -0.110000 0.680000 0.090000
v -0.100000 0.755230 0.036235
v 0.650000 0.755230 0.036235
v -0.100000 0.718995 0.098995
v 0.650000 0.718995 0.098995
v -0.100000 0.656235 0.135230
v 0.650000 0.656235 0.135230
v -0.100000 0.583765 0.135230
v 0.650000 0.583765 0.135230
v -0.100000 0.521005 0.098995
v 0.650000 0.521005 0.098995
v -0.100000 0.484770 0.036235
v 0.650000 0.484770 0.036235
v -0.100000 0.484770 -0.036235
v 0.650000 0.484770 -0.036235
v -0.100000 0.521005 -0.098995
v 0.650000 0.521005 -0.098995
v -0.100000 0.583765 -0.135230
v 0.650000 0.583765 -0.135230
v -0.100000 0.656235 -0.135230
v 0.650000 0.656235 -0.135230
v -0.100000 0.718995 -0.098995
v 0.650000 0.718995 -0.098995
v -0.100000 0.755230 -0.036235
v 0.650000 0.755230 -0.036235
v -0.100000 0.620000 0.000000
v 0.650000 0.620000 0.000000
v -1.190000 -0.050000 0.170000
v -0.310000 -0.050000 0.170000
v -0.310000 0.050000 0.170000
v -1.190000 0.050000 0.170000
v -1.190000 -0.050000 0.250000
v -0.310000 -0.050000 0.250000
v -0.310000 0.050000 0.250000
v -1.190000 0.050000 0.250000
v -0.110000 -0.220000 0.180000
v 0.310000 -0.220000 0.180000
v 0.310000 -0.140000 0.180000
v -0.110000 -0.140000 0.180000
v -0.110000 -0.220000 0.260000
v 0.310000 -0.220000 0.260000
v 0.310000 -0.140000 0.260000
v -0.110000 -0.140000 0.260000
v 0.430000 -0.240000 -0.090000
v 0.670000 -0.240000 -0.090000
v 0.670000 0.240000 -0.090000
v 0.430000 0.240000 -0.090000
v 0.430000 -0.240000 0.090000
v 0.670000 -0.240000 0.090000
v 0.670000 0.240000 0.090000
v 0.430000 0.240000 0.090000
v 0.610000 -0.910000 -0.120000
v 0.830000 -0.910000 -0.120000
v 0.830000 -0.190000 -0.120000
v 0.610000 -0.190000 -0.120000
v 0.610000 -0.910000 0.120000
v 0.830000 -0.910000 0.120000
v 0.830000 -0.190000 0.120000
v 0.610000 -0.190000 0.120000
v 0.530000 -0.270000 -0.100000
v 0.710000 -0.270000 -0.100000
v 0.710000 -0.090000 -0.100000
v 0.530000 -0.090000 -0.100000
v 0.530000 -0.270000 0.100000
v 0.710000 -0.270000 0.100000
v 0.710000 -0.090000 0.100000
v 0.530000 -0.090000 0.100000
v 0.700000 -0.920000 -0.130000
v 0.940000 -0.920000 -0.130000
v 0.940000 -0.720000 -0.130000
v 0.700000 -0.720000 -0.130000
v 0.700000 -0.920000 0.130000
v 0.940000 -0.920000 0.130000
v 0.940000 -0.720000 0.130000
v 0.700000 -0.720000 0.130000
v 0.330000 -0.400000 -0.050000
v 0.510000 -0.400000 -0.050000
v 0.510000 -0.320000 -0.050000
v 0.330000 -0.320000 -0.050000
v 0.330000 -0.400000 0.050000
v 0.510000 -0.400000 0.050000
v 0.510000 -0.320000 0.050000
v 0.330000 -0.320000 0.050000
v 0.480000 -0.640000 -0.050000
v 0.560000 -0.640000 -0.050000
v 0.560000 -0.400000 -0.050000
v 0.480000 -0.400000 -0.050000
v 0.480000 -0.640000 0.050000
v 0.560000 -0.640000 0.050000
v 0.560000 -0.400000 0.050000
v 0.480000 -0.400000 0.050000
v -0.260000 -0.090000 -0.230000
v 0.460000 -0.090000 -0.230000
v 0.460000 0.090000 -0.230000
v -0.260000 0.090000 -0.230000
v -0.260000 -0.090000 -0.130000
v 0.460000 -0.090000 -0.130000
v 0.460000 0.090000 -0.130000
v -0.260000 0.090000 -0.130000
v -0.340000 0.230000 -0.170000
v -0.160000 0.230000 -0.170000
v -0.160000 0.290000 -0.170000
v -0.340000 0.290000 -0.170000
v -0.340000 0.230000 0.170000
v -0.160000 0.230000 0.170000
v -0.160000 0.290000 0.170000
v -0.340000 0.290000 0.170000
v 0.260000 0.230000 -0.170000
v 0.440000 0.230000 -0.170000
v 0.440000 0.290000 -0.170000
v 0.260000 0.290000 -0.170000
v 0.260000 0.230000 0.170000
v 0.440000 0.230000 0.170000
v 0.440000 0.290000 0.170000
v 0.260000 0.290000 0.170000
usemtl BodyDark
f 1 2 3
f 1 3 4
f 5 6 7
f 5 7 8
f 1 5 8
f 1 8 4
f 2 6 7
f 2 7 3
f 4 3 7
f 4 7 8
f 1 2 6
f 1 6 5
usemtl BodyLight
f 9 10 11
f 9 11 12
f 13 14 15
f 13 15 16
f 9 13 16
f 9 16 12
f 10 14 15
f 10 15 11
f 12 11 15
f 12 15 16
f 9 10 14
f 9 14 13
usemtl BodyDark
f 17 18 19
f 17 19 20
f 21 22 23
f 21 23 24
f 17 21 24
f 17 24 20
f 18 22 23
f 18 23 19
f 20 19 23
f 20 23 24
f 17 18 22
f 17 22 21
usemtl Emitter
f 25 26 28
f 25 28 27
f 49 27 25
f 50 26 28
f 27 28 30
f 27 30 29
f 49 29 27
f 50 28 30
f 29 30 32
f 29 32 31
f 49 31 29
f 50 30 32
f 31 32 34
f 31 34 33
f 49 33 31
f 50 32 34
f 33 34 36
f 33 36 35
f 49 35 33
f 50 34 36
f 35 36 38
f 35 38 37
f 49 37 35
f 50 36 38
f 37 38 40
f 37 40 39
f 49 39 37
f 50 38 40
f 39 40 42
f 39 42 41
f 49 41 39
f 50 40 42
f 41 42 44
f 41 44 43
f 49 43 41
f 50 42 44
f 43 44 46
f 43 46 45
f 49 45 43
f 50 44 46
f 45 46 48
f 45 48 47
f 49 47 45
f 50 46 48
f 47 48 26
f 47 26 25
f 49 25 47
f 50 48 26
usemtl GlowBlue
f 51 52 54
f 51 54 53
f 75 53 51
f 76 52 54
f 53 54 56
f 53 56 55
f 75 55 53
f 76 54 56
f 55 56 58
f 55 58 57
f 75 57 55
f 76 56 58
f 57 58 60
f 57 60 59
f 75 59 57
f 76 58 60
f 59 60 62
f 59 62 61
f 75 61 59
f 76 60 62
f 61 62 64
f 61 64 63
f 75 63 61
f 76 62 64
f 63 64 66
f 63 66 65
f 75 65 63
f 76 64 66
f 65 66 68
f 65 68 67
f 75 67 65
f 76 66 68
f 67 68 70
f 67 70 69
f 75 69 67
f 76 68 70
f 69 70 72
f 69 72 71
f 75 71 69
f 76 70 72
f 71 72 74
f 71 74 73
f 75 73 71
f 76 72 74
f 73 74 52
f 73 52 51
f 75 51 73
f 76 74 52
usemtl BodyDark
f 77 78 79
f 77 79 80
f 81 82 83
f 81 83 84
f 77 81 84
f 77 84 80
f 78 82 83
f 78 83 79
f 80 79 83
f 80 83 84
f 77 78 82
f 77 82 81
f 85 86 87
f 85 87 88
f 89 90 91
f 89 91 92
f 85 89 92
f 85 92 88
f 86 90 91
f 86 91 87
f 88 87 91
f 88 91 92
f 85 86 90
f 85 90 89
usemtl BodyLight
f 93 94 95
f 93 95 96
f 97 98 99
f 97 99 100
f 93 97 100
f 93 100 96
f 94 98 99
f 94 99 95
f 96 95 99
f 96 99 100
f 93 94 98
f 93 98 97
usemtl BodyDark
f 101 102 103
f 101 103 104
f 105 106 107
f 105 107 108
f 101 105 108
f 101 108 104
f 102 106 107
f 102 107 103
f 104 103 107
f 104 107 108
f 101 102 106
f 101 106 105
f 109 110 111
f 109 111 112
f 113 114 115
f 113 115 116
f 109 113 116
f 109 116 112
f 110 114 115
f 110 115 111
f 112 111 115
f 112 115 116
f 109 110 114
f 109 114 113
usemtl ScopeGlass
f 117 118 120
f 117 120 119
f 141 119 117
f 142 118 120
f 119 120 122
f 119 122 121
f 141 121 119
f 142 120 122
f 121 122 124
f 121 124 123
f 141 123 121
f 142 122 124
f 123 124 126
f 123 126 125
f 141 125 123
f 142 124 126
f 125 126 128
f 125 128 127
f 141 127 125
f 142 126 128
f 127 128 130
f 127 130 129
f 141 129 127
f 142 128 130
f 129 130 132
f 129 132 131
f 141 131 129
f 142 130 132
f 131 132 134
f 131 134 133
f 141 133 131
f 142 132 134
f 133 134 136
f 133 136 135
f 141 135 133
f 142 134 136
f 135 136 138
f 135 138 137
f 141 137 135
f 142 136 138
f 137 138 140
f 137 140 139
f 141 139 137
f 142 138 140
f 139 140 118
f 139 118 117
f 141 117 139
f 142 140 118
usemtl GlowBlue
f 143 144 145
f 143 145 146
f 147 148 149
f 147 149 150
f 143 147 150
f 143 150 146
f 144 148 149
f 144 149 145
f 146 145 149
f 146 149 150
f 143 144 148
f 143 148 147
f 151 152 153
f 151 153 154
f 155 156 157
f 155 157 158
f 151 155 158
f 151 158 154
f 152 156 157
f 152 157 153
f 154 153 157
f 154 157 158
f 151 152 156
f 151 156 155
usemtl BodyLight
f 159 160 161
f 159 161 162
f 163 164 165
f 163 165 166
f 159 163 166
f 159 166 162
f 160 164 165
f 160 165 161
f 162 161 165
f 162 165 166
f 159 160 164
f 159 164 163
usemtl Grip
f 167 168 169
f 167 169 170
f 171 172 173
f 171 173 174
f 167 171 174
f 167 174 170
f 168 172 173
f 168 173 169
f 170 169 173
f 170 173 174
f 167 168 172
f 167 172 171
usemtl BodyDark
f 175 176 177
f 175 177 178
f 179 180 181
f 179 181 182
f 175 179 182
f 175 182 178
f 176 180 181
f 176 181 177
f 178 177 181
f 178 181 182
f 175 176 180
f 175 180 179
usemtl Grip
f 183 184 185
f 183 185 186
f 187 188 189
f 187 189 190
f 183 187 190
f 183 190 186
f 184 188 189
f 184 189 185
f 186 185 189
f 186 189 190
f 183 184 188
f 183 188 187
usemtl BodyDark
f 191 192 193
f 191 193 194
f 195 196 197
f 195 197 198
f 191 195 198
f 191 198 194
f 192 196 197
f 192 197 193
f 194 193 197
f 194 197 198
f 191 192 196
f 191 196 195
f 199 200 201
f 199 201 202
f 203 204 205
f 203 205 206
f 199 203 206
f 199 206 202
f 200 204 205
f 200 205 201
f 202 201 205
f 202 205 206
f 199 200 204
f 199 204 203
usemtl AccentOrange
f 207 208 209
f 207 209 210
f 211 212 213
f 211 213 214
f 207 211 214
f 207 214 210
f 208 212 213
f 208 213 209
f 210 209 213
f 210 213 214
f 207 208 212
f 207 212 211
usemtl BodyDark
f 215 216 217
f 215 217 218
f 219 220 221
f 219 221 222
f 215 219 222
f 215 222 218
f 216 220 221
f 216 221 217
f 218 217 221
f 218 221 222
f 215 216 220
f 215 220 219
f 223 224 225
f 223 225 226
f 227 228 229
f 227 229 230
f 223 227 230
f 223 230 226
f 224 228 229
f 224 229 225
f 226 225 229
f 226 229 230
f 223 224 228
f 223 228 227